<svg xmlns="http://www.w3.org/2000/svg" xmlnsSvg:svg="http://www.w3.org/2000/svg" width="360.085" height="58.68" viewBox="0 0 270 44"><path fill="none" d="M0 0c6.97.56 5.98 3.94 6 10 14.07-3.99 16.2 5.64 16 17-.05 2.28-.51 8.89-4.59 6.83-3.78-1.91-1.74-11.17-2.72-14.77-.71-2.58-2.79-4.34-5.55-3.4-4.72 1.6-2.63 10.28-3.29 14.32-.3 1.87-1.74 5.33-4.27 3.85C-.09 32.85.04 29.66 0 28Zm188 29c2.01.07 10.65 1.35 5.63 4.98-2.12 1.53-8.78 1.6-10.89-3.17-1.16-2.61-.75-14.26-.74-17.81 0-1.7-.13-5.22.6-6.68C183.85 3.78 187 3.33 188 9c9.23.32 9.23 5.68 0 6zM134 8.89c4.16-.48 4.01.19 7 0 3.75.26 8.19-2.29 12.3 2.5 7.8 9.09-6.05 27.28-15.19 28.09-4.3.37-2-2.88-5.01-7.57-4.69-7.33-11.19-18.81.9-23.02Zm-99.99.81c2.3-.52 3.58-.8 5.99-.59 16.88 1.44 15.39 27.49-3 25.78-12.27-1.14-16.61-18.76-2.99-25.19Zm28.01.04c7.96-1.93 8.8.72 12.4.81 2.18.06 16.25-6.28 19.25 6.45a14 14 0 0 1 0 5c.36 2.2.57 8.99 0 10.68-1.39 2.27-3.95 2.27-5.07 0-1.44-2.9.45-10.8-1.77-14.53C84.5 14.24 78.19 13.81 78 24v4c-.16 8.64-4.35 6.82-5.4 4.68-1.4-2.82 1.5-20.13-7.38-17.02-6.31 2.21-.46 16.94-5.59 18.62C55.54 35.63 56 28.07 56 26c-.01-7.32-1.29-12.23 6.02-16.26ZM104 24c7 8.5 8.94 3.06 13.85 3.57 1.94.2 2.76 1.57 1.98 3.38-2.02 4.7-10.93 4.85-14.83 2.88-9.08-4.61-9.46-17.68-.98-23.09 2.37-1.52 5.22-1.9 7.98-1.63 9.24.9 11.87 11.12 8.4 13.87-2.01 1.6-13.3 1.02-16.4 1.02Zm68 4-7.89-5.21c-7.29-5.12-3.68-13.7 4.89-13.7 6.96 0 9.41 5.09 7.21 6.87-1.34 1.07-7.89-.8-10.21-.96 4.59 5.2 13.12 6.69 11.53 13.98-1.59 7.28-12.42 7.33-16.21 3.59-2.32-2.28-2.19-5.19 0-5.68 2.93-.64 3.32 2.65 10.68 1.11zm34-18.35c3.79-.78 7.41-1.04 10.98.8 11.58 5.97 8.08 25.93-7.98 24.44-12.92-1.2-16.52-19.42-3-25.24zM243 14c-12.37 2.65-7.77 7.47-9.15 15.98-.3 1.87-1.74 5.33-4.27 3.85-1.67-.98-1.54-4.17-1.58-5.83-.05-3.2-.82-16.2 1.56-18.06 1.11-.58 3.33-.11 4.73 0 5.05-.56 7.59-2.32 8.71 4.06zm27-5c-.2 8.02-5.16 16.82-8.75 24-1.58 3.14-3.42 7.35-6.35 9.4-4.18 2.92-10.52 1.18-8.73-1.88 1.11-1.9 6.72-2.43 7.01-7.52.23-3.92-7.88-16.88-7.54-20.85.26-2.99 3.16-3.39 5.39-.83L258 26l7.64-16.01ZM140 33c3.11-1.48 4.27-2.25 6.47-5.02 2.29-2.88 6.27-10.05 2.79-13.3-2.17-2.09-4.84-.1-7.26 0-2.72.19-4.77-1.38-6.85-.86-4.84 1.21-2.26 8.35-.74 11.18zM36.06 15.6c-8.46 5.18-2.31 16.24 5.73 12.66 4.36-1.94 5.01-8.41 1.56-11.52-2.23-2.01-4.64-1.65-7.29-1.14zM116 19c-2.98-5.28-8.02-5.28-11 0zm92.06-3.4c-8.46 5.18-2.31 16.24 5.73 12.66 4.36-1.94 5.01-8.41 1.56-11.52-2.23-2.01-4.64-1.65-7.29-1.14zM140 33h-1l1 1zm-2 1h-1c.867.79 1 1.414 1 0z" style="fill:#fff;fill-opacity:1;stroke:#000;stroke-opacity:0"/><path d="M181.69 51.346c-.255-.254-.533-.755-.618-1.113-1.266-5.334-1.34-5.51-4.61-10.943-7.639-12.692-8.15-20.324-1.647-24.573 3.291-2.15 3.44-2.184 9.565-2.11 3.768.045 6.354-.046 8.586-.303 2.435-.28 3.55-.31 4.688-.127 3.962.638 7.032 3.505 8.548 7.984.684 2.022.588 5.798-.223 8.791-2.237 8.255-9.456 17.397-16.702 21.15-2.327 1.206-4.02 1.707-5.76 1.707-1.046 0-1.472-.108-1.827-.463zm3.041-5.64v-1.164h-1.875c-1.032 0-1.876.083-1.876.185 0 .249 1.872 2.035 2.456 2.344.831.439 1.295-.05 1.295-1.365zm4.876-2.253c3.803-2.112 7.585-6.505 10.012-11.628 2.478-5.23 2.651-9.752.472-12.298-1.737-2.03-3.682-2.372-7.741-1.361-2.953.735-4.332.736-7.268.005-3.985-.992-6.09-.699-7.784 1.083-2.079 2.188-1.99 6.783.237 12.245.55 1.348 1.78 3.349 4.108 6.68 1.827 2.615 3.323 4.8 3.323 4.855 0 .056-.34.101-.757.101-.756 0-.756 0 1.23 2l1.988 2 .07-1.275.07-1.274z" style="fill:#c57e5b;fill-opacity:1;stroke:#000;stroke-width:.234431;stroke-opacity:0" transform="matrix(.74982 0 0 .74982 0 0)"/></svg>