<?xml version="1.0" encoding="UTF-8" standalone="no"?>
<svg
   width="3.75089in"
   height="0.611255in"
   viewBox="0 0 270 44"
   version="1.1"
   id="svg6963"
   sodipodi:docname="logoblack.svg"
   inkscape:version="1.2.2 (b0a8486541, 2022-12-01)"
   xmlns:inkscape="http://www.inkscape.org/namespaces/inkscape"
   xmlns:sodipodi="http://sodipodi.sourceforge.net/DTD/sodipodi-0.dtd"
   xmlns="http://www.w3.org/2000/svg"
   xmlns:svg="http://www.w3.org/2000/svg">
  <defs
     id="defs6967" />
  <sodipodi:namedview
     id="namedview6965"
     pagecolor="#ffffff"
     bordercolor="#000000"
     borderopacity="0.25"
     inkscape:showpageshadow="2"
     inkscape:pageopacity="0.0"
     inkscape:pagecheckerboard="0"
     inkscape:deskcolor="#d1d1d1"
     inkscape:document-units="in"
     showgrid="false"
     inkscape:zoom="3.0162731"
     inkscape:cx="153.16916"
     inkscape:cy="22.544378"
     inkscape:window-width="1920"
     inkscape:window-height="1048"
     inkscape:window-x="1920"
     inkscape:window-y="32"
     inkscape:window-maximized="1"
     inkscape:current-layer="svg6963" />
  <path
     id="Seleção"
     fill="none"
     stroke="#000000"
     stroke-width="1"
     d="M 0,0 C 6.97,0.56 5.98,3.94 6,10 16.847683,6.9237913 20.598116,11.943441 21.655347,19.610028 21.969399,21.887396 22.045804,24.398329 22,27 21.95,29.28 21.49,35.89 17.41,33.83 13.63,31.92 15.67,22.66 14.69,19.06 13.98,16.48 11.9,14.72 9.14,15.66 L 5.85,29.98 C 5.55,31.85 4.11,35.31 1.58,33.83 -0.09,32.85 0.04,29.66 0,28 m 188,1 c 2.01,0.07 10.65,1.35 5.63,4.98 -2.12,1.53 -8.78,1.6 -10.89,-3.17 C 181.58,28.2 181.99,16.55 182,13 c 0,-1.7 -0.13,-5.22 0.6,-6.68 1.25,-2.54 4.4,-2.99 5.4,2.68 9.23,0.32 9.23,5.68 0,6 z M 134,8.89 c 4.16,-0.48 4.01,0.19 7,0 3.75,0.26 8.19,-2.29 12.3,2.5 7.8,9.09 -6.05,27.28 -15.19,28.09 -4.3,0.37 -2,-2.88 -5.01,-7.57 C 128.41,24.58 121.91,13.1 134,8.89 Z M 34.01,9.7 C 36.31,9.18 37.59,8.9 40,9.11 56.88,10.55 55.39,36.6 37,34.89 24.73,33.75 20.39,16.13 34.01,9.7 Z m 28.01,0.04 c 7.96,-1.93 8.8,0.72 12.4,0.81 2.18,0.06 16.25,-6.28 19.25,6.45 0.3,1.59 0.3,3.37 0,5 0.36,2.2 0.57,8.99 0,10.68 -1.39,2.27 -3.95,2.27 -5.07,0 -1.44,-2.9 0.45,-10.8 -1.77,-14.53 C 84.5,14.24 78.19,13.81 78,24 v 4 c -0.16,8.64 -4.35,6.82 -5.4,4.68 C 71.2,29.86 74.1,12.55 65.22,15.66 58.91,17.87 64.76,32.6 59.63,34.28 55.54,35.63 56,28.07 56,26 55.99,18.68 54.71,13.77 62.02,9.74 Z M 104,24 c 7,8.5 8.94,3.06 13.85,3.57 1.94,0.2 2.76,1.57 1.98,3.38 -2.02,4.7 -10.93,4.85 -14.83,2.88 -9.08,-4.61 -9.46,-17.68 -0.98,-23.09 2.37,-1.52 5.22,-1.9 7.98,-1.63 9.24,0.9 11.87,11.12 8.4,13.87 C 118.39,24.58 107.1,24 104,24 Z m 68,4 -7.89,-5.21 c -7.29,-5.12 -3.68,-13.7 4.89,-13.7 6.96,0 9.41,5.09 7.21,6.87 -1.34,1.07 -7.89,-0.8 -10.21,-0.96 4.59,5.2 13.12,6.69 11.53,13.98 -1.59,7.28 -12.42,7.33 -16.21,3.59 -2.32,-2.28 -2.19,-5.19 0,-5.68 2.93,-0.64 3.32,2.65 10.68,1.11 z M 206,9.65 c 3.79,-0.78 7.41,-1.04 10.98,0.8 11.58,5.97 8.08,25.93 -7.98,24.44 -12.92,-1.2 -16.52,-19.42 -3,-25.24 z M 243,14 c -12.37,2.65 -7.77,7.47 -9.15,15.98 -0.3,1.87 -1.74,5.33 -4.27,3.85 -1.67,-0.98 -1.54,-4.17 -1.58,-5.83 -0.05,-3.2 -0.82,-16.2 1.56,-18.06 1.11,-0.58 3.33,-0.11 4.73,0 5.05,-0.56 7.59,-2.32 8.71,4.06 z m 27,-5 c -0.2,8.02 -5.16,16.82 -8.75,24 -1.58,3.14 -3.42,7.35 -6.35,9.4 -4.18,2.92 -10.52,1.18 -8.73,-1.88 1.11,-1.9 6.72,-2.43 7.01,-7.52 0.23,-3.92 -7.88,-16.88 -7.54,-20.85 0.26,-2.99 3.16,-3.39 5.39,-0.83 L 258,26 265.64,9.99 Z M 140,33 c 3.11,-1.48 4.27,-2.25 6.47,-5.02 2.29,-2.88 6.27,-10.05 2.79,-13.3 -2.17,-2.09 -4.84,-0.1 -7.26,0 -2.72,0.19 -6.7084,-2.999334 -6.85,-0.86 L 134.41,25 Z M 36.06,15.6 c -8.46,5.18 -2.31,16.24 5.73,12.66 4.36,-1.94 5.01,-8.41 1.56,-11.52 -2.23,-2.01 -4.64,-1.65 -7.29,-1.14 z M 116,19 c -2.98,-5.28 -8.02,-5.28 -11,0 z m 92.06,-3.4 c -8.46,5.18 -2.31,16.24 5.73,12.66 4.36,-1.94 5.01,-8.41 1.56,-11.52 -2.23,-2.01 -4.64,-1.65 -7.29,-1.14 z M 140,33 h -1 l 1,1 z m -2,1 h -1 c 0.86681,0.789343 1,1.413722 1,0 z"
     sodipodi:nodetypes="ccscccccccccccccccccccccccccccccccccccccccccccccccccscccccccccccccccccccccccccccccccscccccccccccccccccccc"
     style="fill:#000000;fill-opacity:0.0588235;stroke:#000000;stroke-opacity:0"
     inkscape:label="Seleção" />
  <path
     style="fill:#c57e5b;fill-opacity:1;stroke:#000000;stroke-width:0.234431;stroke-opacity:0"
     d="m 181.6897,51.346271 c -0.2546,-0.254594 -0.53242,-0.755689 -0.61739,-1.113545 -1.26641,-5.333511 -1.34072,-5.509891 -4.61035,-10.94246 -7.63882,-12.692096 -8.15046,-20.324104 -1.64736,-24.573203 3.29184,-2.150881 3.44119,-2.183829 9.56509,-2.110171 3.76804,0.04532 6.35399,-0.04587 8.58646,-0.302807 2.43442,-0.280177 3.54987,-0.310437 4.68783,-0.127174 3.96229,0.638109 7.03178,3.50523 8.54766,7.984123 0.6842,2.021571 0.58856,5.797712 -0.22266,8.791148 -2.23707,8.254884 -9.45647,17.396945 -16.70179,21.149788 -2.32753,1.205582 -4.02012,1.707198 -5.76056,1.707198 -1.0456,0 -1.4721,-0.108063 -1.82693,-0.462897 z m 3.04163,-5.640546 v -1.163906 h -1.87544 c -1.0315,0 -1.87545,0.08353 -1.87545,0.18562 0,0.248304 1.87201,2.034651 2.45547,2.343115 0.83117,0.439422 1.29542,-0.04971 1.29542,-1.364829 z m 4.87548,-2.252637 c 3.8031,-2.111983 7.58538,-6.50462 10.0124,-11.62811 2.47764,-5.230339 2.65118,-9.752353 0.47199,-12.298259 -1.73697,-2.029251 -3.68241,-2.371305 -7.74142,-1.361118 -2.95327,0.734997 -4.33213,0.736049 -7.26735,0.0055 -3.98513,-0.991803 -6.09138,-0.698764 -7.7843,1.08302 -2.07882,2.187943 -1.98978,6.782822 0.23728,12.245378 0.54928,1.347295 1.77997,3.348467 4.10732,6.678747 1.82767,2.615275 3.32303,4.800473 3.32303,4.855996 0,0.05552 -0.34052,0.100948 -0.75672,0.100948 -0.75649,0 -0.75611,7.03e-4 1.23076,1.999759 l 1.98749,1.999759 0.0696,-1.274332 0.0696,-1.27433 z"
     id="path14073"
     transform="matrix(0.74982344,0,0,0.74982344,-2.5483113e-4,0)" />
  <path
     style="fill:#000000;fill-opacity:1;stroke:#00000f;stroke-width:0.0636547;stroke-dasharray:none;stroke-opacity:0"
     d="M 2.2552846,45.02343 C 1.854593,44.829837 1.2578301,44.131279 0.92914472,43.471077 0.37545921,42.358937 0.32457509,40.725948 0.23684235,21.253543 L 0.14214973,0.23637815 1.788959,0.43141836 c 1.8026505,0.21349725 3.8771881,1.13926394 4.7119099,2.10269914 0.9669175,1.1160152 1.2902028,2.8194707 1.2902028,6.7983342 0,2.7403533 0.1153629,3.9289473 0.3813375,3.9289473 0.2097357,0 1.5728221,-0.241426 3.0290818,-0.536502 3.668465,-0.743326 7.450391,-0.517233 9.866108,0.58982 5.018914,2.300024 7.185082,6.804562 7.982629,16.59985 0.382416,4.696739 0.112573,9.337539 -0.713039,12.262964 -0.916172,3.246307 -3.483398,4.231374 -5.777697,2.216951 C 20.719864,42.77927 20.364422,41.08695 20.094073,32.656194 19.836356,24.619393 19.645585,23.835611 17.436286,21.73672 16.594418,20.936924 16.05869,20.737764 14.432804,20.620157 12.602862,20.487791 12.428271,20.536094 12.112677,21.262048 11.924976,21.693813 10.73559,26.550191 9.4695972,32.053999 8.2036047,37.557806 6.9380343,42.505226 6.6572185,43.048264 5.6171267,45.059581 3.9128745,45.824283 2.2552846,45.02343 Z"
     id="path1703"
     transform="matrix(0.74982344,0,0,0.74982344,-2.5483113e-4,0)" />
  <path
     style="fill:#000000;fill-opacity:1;stroke:#00000f;stroke-width:0.0636547;stroke-dasharray:none;stroke-opacity:0"
     d="M 46.668371,45.903805 C 39.467323,43.964474 34.313869,37.043471 34.313869,29.311912 c 0,-4.573793 1.694918,-8.529898 5.108201,-11.923046 2.799603,-2.783087 4.934853,-4.087221 7.644883,-4.669218 2.42775,-0.521376 6.087828,-0.57143 8.502787,-0.116282 2.310456,0.435452 6.055807,2.241872 7.80138,3.762684 3.360254,2.927584 5.422386,7.777167 5.422386,12.752002 0,8.389287 -4.756913,14.819908 -12.419333,16.789045 -2.441457,0.62742 -7.370071,0.625749 -9.705802,-0.0033 z m 8.977496,-8.055626 c 3.320984,-1.478593 5.404123,-5.279166 5.114241,-9.330649 -0.355161,-4.963841 -3.754703,-8.299185 -8.449818,-8.290248 -3.705503,0.0071 -4.395235,0.26424 -6.584528,2.455234 -4.027388,4.030518 -4.228253,9.144602 -0.517128,13.166287 2.646334,2.86779 6.729802,3.650026 10.437233,1.999376 z"
     id="path1705"
     transform="matrix(0.74982344,0,0,0.74982344,-2.5483113e-4,0)" />
  <path
     style="fill:#000000;fill-opacity:1;stroke:#00000f;stroke-width:0.0636547;stroke-dasharray:none;stroke-opacity:0"
     d="m 76.592549,44.961099 c -1.475597,-1.475597 -1.665646,-2.974151 -1.665646,-13.133742 0,-9.095981 0.02851,-9.51932 0.763774,-11.339037 1.555724,-3.850313 5.534571,-7.179276 9.375199,-7.843904 3.811094,-0.659517 6.485022,-0.484815 10.269775,0.670978 3.228295,0.985861 3.543677,1.024253 5.271199,0.641681 6.42707,-1.423326 8.09396,-1.681982 10.86482,-1.685926 5.85275,-0.0083 9.85825,2.242282 11.99681,6.740779 1.4171,2.980902 1.62745,5.01563 1.57105,15.19659 l -0.0508,9.177628 -0.96979,1.012944 c -1.88051,1.964186 -4.50296,1.56266 -5.68554,-0.870521 -0.51019,-1.049722 -0.65015,-2.464761 -0.84582,-8.55163 -0.12897,-4.011573 -0.37625,-7.745589 -0.54953,-8.297814 -1.00194,-3.193168 -2.68231,-5.041047 -5.28269,-5.809312 -2.89308,-0.854741 -5.70927,1.229982 -6.92598,5.127053 -0.35698,1.143391 -0.61231,3.874454 -0.79307,8.482771 -0.28134,7.172458 -0.64051,9.00768 -2.05825,10.516795 -0.84297,0.897301 -2.258867,0.983248 -3.440734,0.208858 -1.596635,-1.046155 -1.871854,-2.149476 -2.178051,-8.731527 -0.406108,-8.729764 -1.149014,-12.215876 -3.096475,-14.530301 -2.212618,-2.629547 -6.840182,-2.008278 -9.008602,1.20944 -1.119947,1.661888 -1.472315,4.090997 -1.731001,11.932949 -0.196406,5.953929 -0.34111,7.400357 -0.844635,8.442718 -1.052169,2.178128 -3.528799,2.889695 -4.985963,1.43253 z"
     id="path1707"
     transform="matrix(0.74982344,0,0,0.74982344,-2.5483113e-4,0)" />
  <path
     style="fill:#000000;fill-opacity:1;stroke:#00000f;stroke-width:0.0636547;stroke-dasharray:none;stroke-opacity:0"
     d="m 142.69015,45.952885 c -5.45024,-1.56916 -9.88853,-6.289987 -11.40999,-12.136318 -0.73714,-2.832526 -0.51599,-7.636295 0.48078,-10.443352 1.83795,-5.17596 6.16884,-9.336052 11.08096,-10.643954 2.27186,-0.604904 6.57559,-0.583003 8.98952,0.04575 5.79134,1.508451 10.01719,6.377271 10.38219,11.961855 0.4148,6.346558 -1.46686,7.221644 -15.4265,7.174249 -4.42185,-0.01501 -8.03973,0.08398 -8.03973,0.219981 0,0.578054 5.02622,5.057798 6.34746,5.657337 1.84854,0.838806 3.98981,0.841164 6.63575,0.0073 3.26267,-1.028215 5.26507,-1.177215 6.69589,-0.498245 3.22709,1.531351 1.0985,6.299271 -3.63053,8.132209 -1.60651,0.622669 -2.73262,0.777353 -6.26828,0.861006 -2.8788,0.06811 -4.8172,-0.04407 -5.83752,-0.337821 z m 11.97091,-20.730454 c 0,-0.71455 -2.30255,-3.238227 -3.7981,-4.162855 -2.28072,-1.410061 -4.71062,-1.410061 -6.99133,0 -1.49556,0.924628 -3.79811,3.448305 -3.79811,4.162855 0,0.177393 3.06216,0.305762 7.29377,0.305762 4.23162,0 7.29377,-0.128369 7.29377,-0.305762 z"
     id="path1709"
     transform="matrix(0.74982344,0,0,0.74982344,-2.5483113e-4,0)" />
  <path
     style="fill:#000000;fill-opacity:1;stroke:#00000f;stroke-width:0.0636547;stroke-dasharray:none;stroke-opacity:0"
     d="m 219.47615,45.712104 c -2.93447,-1.003987 -4.54478,-2.29888 -5.80933,-4.671444 -0.83982,-1.575681 -0.83245,-2.931424 0.0218,-4.017473 1.08505,-1.379416 2.43678,-1.426285 5.4699,-0.189658 2.32996,0.949943 3.00649,1.076364 5.78793,1.081565 5.33665,0.01 5.29549,-0.115759 -1.53092,-4.676904 -3.27094,-2.185512 -6.44939,-4.545671 -7.06323,-5.244798 -4.39903,-5.010219 -2.85441,-11.728819 3.35573,-14.596323 1.90655,-0.880338 2.40778,-0.964508 5.74365,-0.964508 3.51781,0 3.74104,0.0435 5.95484,1.160373 3.80978,1.922046 5.46306,4.967142 3.82501,7.045118 -0.90323,1.145815 -2.31831,1.191435 -7.6756,0.247449 -2.07342,-0.36535 -4.36662,-0.748952 -5.096,-0.852449 l -1.32614,-0.188177 1.83532,1.766573 c 1.00943,0.971615 3.47108,2.879315 5.47033,4.239333 6.15146,4.184609 7.98938,6.325872 8.33923,9.715568 0.34089,3.302889 -1.06021,6.487575 -3.75909,8.544391 -2.99177,2.280026 -9.3593,3.032919 -13.54346,1.601364 z"
     id="path1711"
     transform="matrix(0.74982344,0,0,0.74982344,-2.5483113e-4,0)" />
  <path
     style="fill:#000000;fill-opacity:1;stroke:#00000f;stroke-width:0.0636547;stroke-dasharray:none;stroke-opacity:0"
     d="m 249.57578,45.834109 c -2.49793,-0.837954 -4.51321,-2.39404 -5.35645,-4.135932 -1.16636,-2.40939 -1.42176,-6.222072 -1.30899,-19.541373 0.0959,-11.32275 0.15787,-12.4833536 0.7282,-13.6312516 0.77546,-1.5607709 1.69721,-2.226388 3.08311,-2.226388 1.36049,0 2.69671,1.5648428 3.46132,4.0535456 l 0.53715,1.748316 2.17475,0.244599 c 9.31138,1.047271 8.99797,6.3403 -0.43864,7.407932 l -1.98156,0.224188 v 9.367722 9.367723 l 1.8945,0.236702 c 4.33755,0.54194 7.72001,2.132927 7.72001,3.631206 0,0.860824 -1.32206,2.314837 -2.81115,3.091723 -1.49883,0.781968 -5.59625,0.867769 -7.70225,0.161288 z"
     id="path1713"
     transform="matrix(0.74982344,0,0,0.74982344,-2.5483113e-4,0)" />
  <path
     style="fill:#000000;fill-opacity:1;stroke:#00000f;stroke-width:0.0636547;stroke-dasharray:none;stroke-opacity:0"
     d="m 276.00286,45.88687 c -5.5437,-1.472658 -9.74291,-5.431345 -11.65501,-10.987435 -0.62939,-1.828847 -0.76618,-2.886306 -0.74049,-5.724358 0.0489,-5.401315 1.53865,-8.75513 5.553,-12.501229 3.41547,-3.187244 6.77518,-4.407054 12.13829,-4.407054 9.74638,0 16.91705,7.23722 16.91705,17.074051 0,8.086866 -4.89247,14.598874 -12.44633,16.566407 -2.4352,0.63429 -7.34059,0.624052 -9.76651,-0.02038 z m 8.9823,-8.035179 c 5.47881,-2.35272 7.00986,-10.358523 2.84788,-14.891541 -1.78991,-1.949487 -3.49622,-2.720963 -6.02832,-2.725587 -3.50765,-0.0064 -4.37522,0.277593 -6.34356,2.076542 -2.66229,2.433185 -3.263,3.757849 -3.263,7.195507 0,3.255681 0.56167,4.632316 2.75639,6.755859 2.55082,2.468091 6.51965,3.096901 10.03061,1.58922 z"
     id="path1717"
     transform="matrix(0.74982344,0,0,0.74982344,-2.5483113e-4,0)" />
  <path
     style="fill:#000000;fill-opacity:1;stroke:#00000f;stroke-width:0.0636547;stroke-dasharray:none;stroke-opacity:0"
     d="m 306.24442,44.902863 c -1.61498,-1.131176 -1.82397,-2.143714 -2.08293,-10.091691 -0.37164,-11.406359 0.25262,-19.208067 1.67759,-20.965776 0.57085,-0.70414 0.85671,-0.750389 4.69772,-0.760028 2.24944,-0.0056 5.43486,-0.137391 7.07872,-0.292769 2.94107,-0.277992 3.00559,-0.268401 4.0379,0.600236 1.05552,0.888156 2.2458,3.645514 2.03276,4.708975 -0.0728,0.363239 -1.02823,0.804092 -2.9261,1.350111 -3.19565,0.919391 -4.99417,1.877297 -6.53371,3.479893 -1.74056,1.811841 -2.08587,3.330501 -2.0887,9.185877 -0.004,7.60299 -0.54844,10.215348 -2.58389,12.390878 -0.96615,1.032642 -2.18984,1.178438 -3.30936,0.394294 z"
     id="path1719"
     transform="matrix(0.74982344,0,0,0.74982344,-2.5483113e-4,0)" />
  <path
     style="fill:#000000;fill-opacity:1;stroke:#00000f;stroke-width:0.0636547;stroke-dasharray:none;stroke-opacity:0"
     d="m 330.54036,57.970063 c -2.35268,-0.869006 -3.16399,-2.746104 -1.81347,-4.195728 0.37018,-0.397334 1.854,-1.403599 3.29739,-2.236143 5.38191,-3.104288 6.69382,-6.238275 4.86128,-11.613043 -0.43054,-1.262761 -2.23495,-5.503531 -4.0098,-9.423932 -3.49197,-7.713289 -5.15416,-12.221333 -5.1522,-13.973372 0.002,-1.44868 1.08241,-3.192954 2.14345,-3.459257 1.09299,-0.274324 2.10734,-0.0036 3.49831,0.93381 0.96299,0.64896 1.8094,2.198429 5.78934,10.598209 2.5638,5.410969 4.74294,9.919615 4.84254,10.019215 0.0996,0.0996 2.47357,-4.639449 5.27549,-10.531219 l 5.09439,-10.712307 2.6452,-0.556106 c 1.45486,-0.305858 2.72479,-0.476512 2.82207,-0.379232 0.30842,0.308425 -0.60034,5.664229 -1.47378,8.685776 -1.34348,4.647536 -3.3119,9.278356 -7.82774,18.415207 -4.96031,10.036126 -6.45396,12.634111 -8.63698,15.022681 -2.23494,2.445382 -4.56621,3.538406 -7.82839,3.67037 -1.39287,0.05635 -2.98006,-0.06287 -3.5271,-0.264929 z"
     id="path1721"
     transform="matrix(0.74982344,0,0,0.74982344,-2.5483113e-4,0)" />
</svg>
